<svg width="466" height="120" viewBox="0 0 466 120" fill="none" xmlns="http://www.w3.org/2000/svg">
<rect x="11.4807" y="97.3539" width="48" height="7" fill="#59B077"/>
<rect x="11.4807" y="97.3539" width="48" height="7" transform="rotate(-90 11.4807 97.3539)" fill="#59B077"/>
<rect y="57.5621" width="70.1158" height="7" transform="rotate(-33.1069 0 57.5621)" fill="#59B077"/>
<path d="M84.7773 36.2442L84.7773 26.354L93.9807 26.354L93.9807 37.854L93.9807 50.354L100.981 46.854L100.981 26.354L100.981 19.354L84.7774 19.354L77.9807 19.354L77.9807 32.854L58.7378 19.2648L54.9143 25.1283L84.7774 45.9311L84.7773 36.2442Z" fill="#59B077"/>
<rect width="25.881" height="7" transform="matrix(-0.837653 -0.546202 -0.546202 0.837653 119.399 58.8197)" fill="#59B077"/>
<path d="M66.4807 105.354L66.4807 72.3539L73.4807 65.8539L73.4807 72.3539L73.4807 105.354L66.4807 105.354Z" fill="#59B077"/>
<rect x="61.4807" y="78.354" width="5" height="4" fill="#59B077"/>
<rect x="61.4807" y="94.3539" width="5" height="4" fill="#59B077"/>
<path d="M80.4807 104.854L80.4807 71.8539L87.4807 65.3539L87.4807 71.8539L87.4807 104.854L80.4807 104.854Z" fill="#59B077"/>
<rect x="75.4807" y="77.854" width="5" height="4" fill="#59B077"/>
<rect x="75.4807" y="93.854" width="5" height="4" fill="#59B077"/>
<path d="M94.4807 104.854L94.4807 71.8539L101.481 65.3539L101.481 71.8539L101.481 104.854L94.4807 104.854Z" fill="#59B077"/>
<rect x="89.4807" y="77.854" width="5" height="4" fill="#59B077"/>
<rect x="89.4807" y="93.854" width="5" height="4" fill="#59B077"/>
<path d="M108.481 104.854L108.481 71.8539L115.481 65.3539L115.481 71.8539L115.481 104.854L108.481 104.854Z" fill="#59B077"/>
<rect x="103.481" y="77.854" width="5" height="4" fill="#59B077"/>
<rect x="103.481" y="93.854" width="5" height="4" fill="#59B077"/>
<path d="M170.5 89.1875H178.312C178.062 92.1667 177.229 94.8229 175.812 97.1562C174.396 99.4688 172.406 101.292 169.844 102.625C167.281 103.958 164.167 104.625 160.5 104.625C157.688 104.625 155.156 104.125 152.906 103.125C150.656 102.104 148.729 100.667 147.125 98.8125C145.521 96.9375 144.292 94.6771 143.438 92.0312C142.604 89.3854 142.188 86.4271 142.188 83.1562V79.375C142.188 76.1042 142.615 73.1458 143.469 70.5C144.344 67.8542 145.594 65.5938 147.219 63.7188C148.844 61.8229 150.792 60.375 153.062 59.375C155.354 58.375 157.927 57.875 160.781 57.875C164.406 57.875 167.469 58.5417 169.969 59.875C172.469 61.2083 174.406 63.0521 175.781 65.4062C177.177 67.7604 178.031 70.4583 178.344 73.5H170.531C170.323 71.5417 169.865 69.8646 169.156 68.4688C168.469 67.0729 167.448 66.0104 166.094 65.2812C164.74 64.5312 162.969 64.1562 160.781 64.1562C158.99 64.1562 157.427 64.4896 156.094 65.1562C154.76 65.8229 153.646 66.8021 152.75 68.0938C151.854 69.3854 151.177 70.9792 150.719 72.875C150.281 74.75 150.062 76.8958 150.062 79.3125V83.1562C150.062 85.4479 150.26 87.5312 150.656 89.4062C151.073 91.2604 151.698 92.8542 152.531 94.1875C153.385 95.5208 154.469 96.5521 155.781 97.2812C157.094 98.0104 158.667 98.375 160.5 98.375C162.729 98.375 164.531 98.0208 165.906 97.3125C167.302 96.6042 168.354 95.5729 169.062 94.2188C169.792 92.8438 170.271 91.1667 170.5 89.1875ZM203.219 58.5V104H195.438V58.5H203.219ZM217.5 58.5V64.75H181.281V58.5H217.5ZM253.281 97.7812V104H229.125V97.7812H253.281ZM231.344 58.5V104H223.5V58.5H231.344ZM250.125 77.5V83.625H229.125V77.5H250.125ZM253.125 58.5V64.75H229.125V58.5H253.125ZM295.688 58.5V104H287.875V64.75H267.656V104H259.844V58.5H295.688Z" fill="#333333"/>
<path d="M311.594 58.5L321.25 75.0938L330.906 58.5H339.938L326.188 81.0312L340.281 104H331.156L321.25 87.0938L311.344 104H302.188L316.312 81.0312L302.531 58.5H311.594ZM363.781 64.5625L350.188 104H341.969L359.094 58.5H364.344L363.781 64.5625ZM375.156 104L361.531 64.5625L360.938 58.5H366.219L383.406 104H375.156ZM374.5 87.125V93.3438H349.75V87.125H374.5ZM402.688 88.1562L414.25 58.5H422.906L407.094 95.75C406.594 96.8958 406.021 98.0104 405.375 99.0938C404.75 100.156 403.99 101.104 403.094 101.938C402.198 102.771 401.115 103.438 399.844 103.938C398.573 104.417 397.031 104.656 395.219 104.656C394.74 104.656 394.156 104.635 393.469 104.594C392.802 104.552 392.312 104.51 392 104.469L392.062 98.3125C392.312 98.3542 392.729 98.3854 393.312 98.4062C393.917 98.4271 394.354 98.4375 394.625 98.4375C395.833 98.4375 396.792 98.2396 397.5 97.8438C398.208 97.4271 398.771 96.875 399.188 96.1875C399.625 95.4792 400.01 94.7083 400.344 93.875L402.688 88.1562ZM394 58.5L405.438 83.6875L407.688 91.875L401.594 92.0938L385.438 58.5H394ZM455 89.1875H462.812C462.562 92.1667 461.729 94.8229 460.312 97.1562C458.896 99.4688 456.906 101.292 454.344 102.625C451.781 103.958 448.667 104.625 445 104.625C442.188 104.625 439.656 104.125 437.406 103.125C435.156 102.104 433.229 100.667 431.625 98.8125C430.021 96.9375 428.792 94.6771 427.938 92.0312C427.104 89.3854 426.688 86.4271 426.688 83.1562V79.375C426.688 76.1042 427.115 73.1458 427.969 70.5C428.844 67.8542 430.094 65.5938 431.719 63.7188C433.344 61.8229 435.292 60.375 437.562 59.375C439.854 58.375 442.427 57.875 445.281 57.875C448.906 57.875 451.969 58.5417 454.469 59.875C456.969 61.2083 458.906 63.0521 460.281 65.4062C461.677 67.7604 462.531 70.4583 462.844 73.5H455.031C454.823 71.5417 454.365 69.8646 453.656 68.4688C452.969 67.0729 451.948 66.0104 450.594 65.2812C449.24 64.5312 447.469 64.1562 445.281 64.1562C443.49 64.1562 441.927 64.4896 440.594 65.1562C439.26 65.8229 438.146 66.8021 437.25 68.0938C436.354 69.3854 435.677 70.9792 435.219 72.875C434.781 74.75 434.562 76.8958 434.562 79.3125V83.1562C434.562 85.4479 434.76 87.5312 435.156 89.4062C435.573 91.2604 436.198 92.8542 437.031 94.1875C437.885 95.5208 438.969 96.5521 440.281 97.2812C441.594 98.0104 443.167 98.375 445 98.375C447.229 98.375 449.031 98.0208 450.406 97.3125C451.802 96.6042 452.854 95.5729 453.562 94.2188C454.292 92.8438 454.771 91.1667 455 89.1875Z" fill="#59B077"/>
</svg>
